<?xml version="1.0" encoding="UTF-8"?>
<svg version="1.1" xmlns="http://www.w3.org/2000/svg" width="512" height="512">
<path d="M0 0 C3.87051644 0.32254304 7.11828804 0.93244946 10.75 2.3125 C11.08 3.3025 11.41 4.2925 11.75 5.3125 C13.4 5.6425 15.05 5.9725 16.75 6.3125 C16.75 6.9725 16.75 7.6325 16.75 8.3125 C19.06 8.9725 21.37 9.6325 23.75 10.3125 C23.75 10.9725 23.75 11.6325 23.75 12.3125 C25.73 12.6425 27.71 12.9725 29.75 13.3125 C30.08 14.3025 30.41 15.2925 30.75 16.3125 C32.4 16.6425 34.05 16.9725 35.75 17.3125 C35.75 17.9725 35.75 18.6325 35.75 19.3125 C38.06 19.9725 40.37 20.6325 42.75 21.3125 C42.75 21.9725 42.75 22.6325 42.75 23.3125 C44.73 23.6425 46.71 23.9725 48.75 24.3125 C49.08 25.3025 49.41 26.2925 49.75 27.3125 C51.73 27.6425 53.71 27.9725 55.75 28.3125 C56.08 29.3025 56.41 30.2925 56.75 31.3125 C58.4 31.6425 60.05 31.9725 61.75 32.3125 C61.75 32.9725 61.75 33.6325 61.75 34.3125 C64.06 34.9725 66.37 35.6325 68.75 36.3125 C68.75 36.9725 68.75 37.6325 68.75 38.3125 C70.73 38.6425 72.71 38.9725 74.75 39.3125 C75.08 40.3025 75.41 41.2925 75.75 42.3125 C77.73 42.6425 79.71 42.9725 81.75 43.3125 C82.08 44.3025 82.41 45.2925 82.75 46.3125 C84.4 46.6425 86.05 46.9725 87.75 47.3125 C87.75 47.9725 87.75 48.6325 87.75 49.3125 C90.06 49.9725 92.37 50.6325 94.75 51.3125 C94.75 51.9725 94.75 52.6325 94.75 53.3125 C96.73 53.6425 98.71 53.9725 100.75 54.3125 C101.08 55.3025 101.41 56.2925 101.75 57.3125 C103.73 57.6425 105.71 57.9725 107.75 58.3125 C108.08 59.3025 108.41 60.2925 108.75 61.3125 C110.4 61.6425 112.05 61.9725 113.75 62.3125 C113.75 62.9725 113.75 63.6325 113.75 64.3125 C116.06 64.9725 118.37 65.6325 120.75 66.3125 C120.75 66.9725 120.75 67.6325 120.75 68.3125 C122.73 68.6425 124.71 68.9725 126.75 69.3125 C127.08 70.3025 127.41 71.2925 127.75 72.3125 C128.925625 72.498125 128.925625 72.498125 130.125 72.6875 C132.75 73.3125 132.75 73.3125 134.75 75.3125 C135.430625 75.456875 136.11125 75.60125 136.8125 75.75 C137.451875 75.935625 138.09125 76.12125 138.75 76.3125 C139.08 77.3025 139.41 78.2925 139.75 79.3125 C141.73 79.6425 143.71 79.9725 145.75 80.3125 C146.08 81.3025 146.41 82.2925 146.75 83.3125 C148.73 83.6425 150.71 83.9725 152.75 84.3125 C153.08 85.3025 153.41 86.2925 153.75 87.3125 C155.4 87.6425 157.05 87.9725 158.75 88.3125 C158.75 88.9725 158.75 89.6325 158.75 90.3125 C161.06 90.9725 163.37 91.6325 165.75 92.3125 C165.75 92.9725 165.75 93.6325 165.75 94.3125 C167.73 94.6425 169.71 94.9725 171.75 95.3125 C172.08 96.3025 172.41 97.2925 172.75 98.3125 C174.73 98.6425 176.71 98.9725 178.75 99.3125 C179.08 100.3025 179.41 101.2925 179.75 102.3125 C181.4 102.6425 183.05 102.9725 184.75 103.3125 C184.75 103.9725 184.75 104.6325 184.75 105.3125 C186.73 105.6425 188.71 105.9725 190.75 106.3125 C191.08 107.3025 191.41 108.2925 191.75 109.3125 C193.73 109.6425 195.71 109.9725 197.75 110.3125 C198.08 111.3025 198.41 112.2925 198.75 113.3125 C199.925625 113.498125 199.925625 113.498125 201.125 113.6875 C203.75 114.3125 203.75 114.3125 205.75 116.3125 C205.94384136 119.446348 206.01027102 122.4915871 205.99050903 125.62637329 C205.99307231 127.09289009 205.99307231 127.09289009 205.99568737 128.58903348 C205.99899817 131.88576338 205.98795243 135.18229257 205.97705078 138.47900391 C205.97648701 140.83394872 205.97680256 143.18889389 205.97793579 145.5438385 C205.97851164 151.95470317 205.96671987 158.36549361 205.95278788 164.77634096 C205.94063187 170.79197003 205.93954373 176.80760793 205.93748413 182.82324712 C205.9331039 194.74057725 205.91978591 206.65788003 205.90087891 218.57519531 C205.88252859 230.15364444 205.86836794 241.73208615 205.85986328 253.31054688 C205.85933783 254.02391337 205.85881239 254.73727987 205.85827102 255.47226353 C205.85566099 259.05091524 205.85313357 262.62956701 205.85064721 266.20821881 C205.82990449 295.909664 205.79452166 325.61108071 205.75 355.3125 C204.574375 355.7765625 204.574375 355.7765625 203.375 356.25 C200.03675409 357.54874034 200.03675409 357.54874034 197.375 359.8125 C195.48776126 361.55456653 194.19914369 361.70021408 191.75 362.3125 C191.255 362.8075 190.76 363.3025 190.25 363.8125 C188.46505874 365.59744126 187.15933581 365.75032164 184.75 366.3125 C184.42 366.9725 184.09 367.6325 183.75 368.3125 C183.13125 368.456875 182.5125 368.60125 181.875 368.75 C179.66727705 369.14391272 179.66727705 369.14391272 178.25 370.8125 C176.44851305 372.61398695 175.17864387 372.70533903 172.75 373.3125 C172.255 373.8075 171.76 374.3025 171.25 374.8125 C169.44851305 376.61398695 168.17864387 376.70533903 165.75 377.3125 C165.255 377.8075 164.76 378.3025 164.25 378.8125 C162.46505874 380.59744126 161.15933581 380.75032164 158.75 381.3125 C158.42 381.9725 158.09 382.6325 157.75 383.3125 C157.13125 383.456875 156.5125 383.60125 155.875 383.75 C153.66727705 384.14391272 153.66727705 384.14391272 152.25 385.8125 C150.44851305 387.61398695 149.17864387 387.70533903 146.75 388.3125 C146.255 388.8075 145.76 389.3025 145.25 389.8125 C143.46505874 391.59744126 142.15933581 391.75032164 139.75 392.3125 C139.42 392.9725 139.09 393.6325 138.75 394.3125 C138.13125 394.456875 137.5125 394.60125 136.875 394.75 C134.66727705 395.14391272 134.66727705 395.14391272 133.25 396.8125 C131.44851305 398.61398695 130.17864387 398.70533903 127.75 399.3125 C127.255 399.8075 126.76 400.3025 126.25 400.8125 C124.46505874 402.59744126 123.15933581 402.75032164 120.75 403.3125 C120.42 403.9725 120.09 404.6325 119.75 405.3125 C116.6875 405.9375 116.6875 405.9375 113.75 406.3125 C113.42 407.3025 113.09 408.2925 112.75 409.3125 C111.42203709 409.66662344 110.08783393 409.99771554 108.75 410.3125 C108.255 410.8075 107.76 411.3025 107.25 411.8125 C105.44851305 413.61398695 104.17864387 413.70533903 101.75 414.3125 C101.255 414.8075 100.76 415.3025 100.25 415.8125 C98.46505874 417.59744126 97.15933581 417.75032164 94.75 418.3125 C94.42 418.9725 94.09 419.6325 93.75 420.3125 C90.6875 420.9375 90.6875 420.9375 87.75 421.3125 C87.42 422.3025 87.09 423.2925 86.75 424.3125 C85.42203709 424.66662344 84.08783393 424.99771554 82.75 425.3125 C82.255 425.8075 81.76 426.3025 81.25 426.8125 C79.44851305 428.61398695 78.17864387 428.70533903 75.75 429.3125 C75.255 429.8075 74.76 430.3025 74.25 430.8125 C72.46505874 432.59744126 71.15933581 432.75032164 68.75 433.3125 C68.42 433.9725 68.09 434.6325 67.75 435.3125 C64.6875 435.9375 64.6875 435.9375 61.75 436.3125 C61.42 437.3025 61.09 438.2925 60.75 439.3125 C59.42203709 439.66662344 58.08783393 439.99771554 56.75 440.3125 C56.255 440.8075 55.76 441.3025 55.25 441.8125 C53.44851305 443.61398695 52.17864387 443.70533903 49.75 444.3125 C49.255 444.8075 48.76 445.3025 48.25 445.8125 C46.46505874 447.59744126 45.15933581 447.75032164 42.75 448.3125 C42.42 448.9725 42.09 449.6325 41.75 450.3125 C41.13125 450.456875 40.5125 450.60125 39.875 450.75 C37.66727705 451.14391272 37.66727705 451.14391272 36.25 452.8125 C34.44851305 454.61398695 33.17864387 454.70533903 30.75 455.3125 C30.255 455.8075 29.76 456.3025 29.25 456.8125 C27.46505874 458.59744126 26.15933581 458.75032164 23.75 459.3125 C23.42 459.9725 23.09 460.6325 22.75 461.3125 C19.6875 461.9375 19.6875 461.9375 16.75 462.3125 C16.42 463.3025 16.09 464.2925 15.75 465.3125 C14.42203709 465.66662344 13.08783393 465.99771554 11.75 466.3125 C11.275625 466.8075 10.80125 467.3025 10.3125 467.8125 C8.26486377 469.77823078 6.51252651 469.93918561 3.75 470.3125 C3.75 470.9725 3.75 471.6325 3.75 472.3125 C2.76 471.9825 1.77 471.6525 0.75 471.3125 C0.09 471.18875 -0.57 471.065 -1.25 470.9375 C-3.63037477 470.19363289 -4.50905651 469.05344349 -6.25 467.3125 C-6.91 467.1475 -7.57 466.9825 -8.25 466.8125 C-10.70541971 466.19864507 -11.48766782 465.07483218 -13.25 463.3125 C-14.58283904 462.97719568 -15.91623729 462.6441111 -17.25 462.3125 C-19.92233194 460.98737967 -22.44747605 459.41664726 -25 457.875 C-25.69738281 457.46701172 -26.39476562 457.05902344 -27.11328125 456.63867188 C-28.8625987 455.58942374 -30.56150699 454.45706305 -32.25 453.3125 C-32.25 452.6525 -32.25 451.9925 -32.25 451.3125 C-32.92417969 451.23128906 -33.59835938 451.15007812 -34.29296875 451.06640625 C-38.14469141 450.08439506 -41.16807836 448.27406811 -44.5625 446.25 C-45.20767578 445.87294922 -45.85285156 445.49589844 -46.51757812 445.10742188 C-48.09878152 444.18212507 -49.6749146 443.24817319 -51.25 442.3125 C-51.25 441.6525 -51.25 440.9925 -51.25 440.3125 C-52.03375 440.18875 -52.8175 440.065 -53.625 439.9375 C-56.25 439.3125 -56.25 439.3125 -58.25 437.3125 C-59.5788704 436.96179734 -60.91281789 436.63004197 -62.25 436.3125 C-64.92233194 434.98737967 -67.44747605 433.41664726 -70 431.875 C-70.69738281 431.46701172 -71.39476562 431.05902344 -72.11328125 430.63867188 C-73.8625987 429.58942374 -75.56150699 428.45706305 -77.25 427.3125 C-77.25 426.6525 -77.25 425.9925 -77.25 425.3125 C-78.03375 425.18875 -78.8175 425.065 -79.625 424.9375 C-82.25 424.3125 -82.25 424.3125 -84.25 422.3125 C-84.889375 422.168125 -85.52875 422.02375 -86.1875 421.875 C-88.6707798 421.19774187 -89.52932859 420.18279501 -91.25 418.3125 C-94.2306531 416.32539793 -97.18768953 414.79812764 -100.4375 413.3125 C-102.25 412.3125 -102.25 412.3125 -103.25 410.3125 C-104.91500443 409.97096063 -106.58178677 409.63800502 -108.25 409.3125 C-108.91 408.6525 -109.57 407.9925 -110.25 407.3125 C-111.58200607 406.97390182 -112.91552859 406.64124752 -114.25 406.3125 C-116.390625 405.19140625 -116.390625 405.19140625 -118.5 403.875 C-119.55960938 403.22724609 -119.55960938 403.22724609 -120.640625 402.56640625 C-121.17171875 402.15261719 -121.7028125 401.73882812 -122.25 401.3125 C-122.25 400.6525 -122.25 399.9925 -122.25 399.3125 C-123.03375 399.18875 -123.8175 399.065 -124.625 398.9375 C-127.25 398.3125 -127.25 398.3125 -129.25 396.3125 C-130.5788704 395.96179734 -131.91281789 395.63004197 -133.25 395.3125 C-135.92233194 393.98737967 -138.44747605 392.41664726 -141 390.875 C-141.69738281 390.46701172 -142.39476562 390.05902344 -143.11328125 389.63867188 C-144.8625987 388.58942374 -146.56150699 387.45706305 -148.25 386.3125 C-148.25 385.6525 -148.25 384.9925 -148.25 384.3125 C-149.03375 384.18875 -149.8175 384.065 -150.625 383.9375 C-153.25 383.3125 -153.25 383.3125 -155.25 381.3125 C-156.5788704 380.96179734 -157.91281789 380.63004197 -159.25 380.3125 C-161.92233194 378.98737967 -164.44747605 377.41664726 -167 375.875 C-167.69738281 375.46701172 -168.39476562 375.05902344 -169.11328125 374.63867188 C-170.8625987 373.58942374 -172.56150699 372.45706305 -174.25 371.3125 C-174.25 370.6525 -174.25 369.9925 -174.25 369.3125 C-174.97018311 369.20365479 -175.69036621 369.09480957 -176.43237305 368.98266602 C-179.47390225 368.25924537 -181.63595275 367.16117785 -184.33203125 365.58984375 C-185.26337891 365.05166016 -186.19472656 364.51347656 -187.15429688 363.95898438 C-188.11400391 363.39501953 -189.07371094 362.83105469 -190.0625 362.25 C-191.04154297 361.68216797 -192.02058594 361.11433594 -193.02929688 360.52929688 C-195.43993348 359.12995173 -197.8465851 357.72420071 -200.25 356.3125 C-200.25 355.6525 -200.25 354.9925 -200.25 354.3125 C-200.91 353.9825 -201.57 353.6525 -202.25 353.3125 C-202.29558872 323.28154688 -202.33100049 293.25059494 -202.35213066 263.21961487 C-202.35463218 259.67717158 -202.35722082 256.13472835 -202.35986328 252.59228516 C-202.3603879 251.88702469 -202.36091252 251.18176423 -202.36145304 250.45513223 C-202.37016447 239.02365394 -202.38593848 227.59219569 -202.40430559 216.1607293 C-202.42298415 204.43797226 -202.43411238 192.71522573 -202.43817699 180.99245441 C-202.44079108 174.40501556 -202.446962 167.81762221 -202.46146011 161.23019791 C-202.4749817 155.03660024 -202.47923369 148.84306705 -202.47621536 142.64945602 C-202.47676797 140.37013652 -202.48077755 138.09081497 -202.48841095 135.81150818 C-202.49828739 132.71175206 -202.49599575 129.61224292 -202.49050903 126.51248169 C-202.49633472 125.60004357 -202.5021604 124.68760546 -202.50816262 123.7475177 C-202.47824242 117.54074242 -202.47824242 117.54074242 -200.25 115.3125 C-196.03810843 111.68318783 -191.46914435 108.92010713 -186.6875 106.125 C-185.55538086 105.44920898 -185.55538086 105.44920898 -184.40039062 104.75976562 C-183.66884766 104.32986328 -182.93730469 103.89996094 -182.18359375 103.45703125 C-181.52415771 103.06878174 -180.86472168 102.68053223 -180.18530273 102.28051758 C-178.21516637 101.29507659 -176.37774658 100.84409253 -174.25 100.3125 C-172.57854798 98.98517046 -170.91313351 97.65023782 -169.25 96.3125 C-160.30846404 90.49686685 -160.30846404 90.49686685 -155.25 89.3125 C-154.755 88.8175 -154.26 88.3225 -153.75 87.8125 C-152.25 86.3125 -152.25 86.3125 -150.375 85.875 C-147.37797216 85.0816691 -145.67309771 83.26151338 -143.25 81.3125 C-134.30846404 75.49686685 -134.30846404 75.49686685 -129.25 74.3125 C-128.755 73.8175 -128.26 73.3225 -127.75 72.8125 C-126.25 71.3125 -126.25 71.3125 -124.375 70.875 C-121.40365838 70.08846839 -119.62897297 68.22728312 -117.25 66.3125 C-114.5625 65.125 -114.5625 65.125 -112.25 64.3125 C-110.19848979 63.43555217 -110.19848979 63.43555217 -108.875 61.8125 C-107.25 60.3125 -107.25 60.3125 -105.375 59.875 C-102.37797216 59.0816691 -100.67309771 57.26151338 -98.25 55.3125 C-89.30846404 49.49686685 -89.30846404 49.49686685 -84.25 48.3125 C-83.755 47.8175 -83.26 47.3225 -82.75 46.8125 C-81.25 45.3125 -81.25 45.3125 -79.375 44.875 C-76.37797216 44.0816691 -74.67309771 42.26151338 -72.25 40.3125 C-63.30846404 34.49686685 -63.30846404 34.49686685 -58.25 33.3125 C-57.755 32.8175 -57.26 32.3225 -56.75 31.8125 C-55.25 30.3125 -55.25 30.3125 -53.375 29.875 C-50.37797216 29.0816691 -48.67309771 27.26151338 -46.25 25.3125 C-37.32566093 19.50805183 -37.32566093 19.50805183 -32.25 18.3125 C-30.57854798 16.98517046 -28.91313351 15.65023782 -27.25 14.3125 C-18.30846404 8.49686685 -18.30846404 8.49686685 -13.25 7.3125 C-12.5075 6.57 -12.5075 6.57 -11.75 5.8125 C-9.94851305 4.01101305 -8.67864387 3.91966097 -6.25 3.3125 C-5.816875 2.796875 -5.38375 2.28125 -4.9375 1.75 C-3.25 0.3125 -3.25 0.3125 0 0 Z M-1.25 21.3125 C-1.58 22.3025 -1.91 23.2925 -2.25 24.3125 C-4.23 24.6425 -6.21 24.9725 -8.25 25.3125 C-8.58 26.3025 -8.91 27.2925 -9.25 28.3125 C-10.9 28.6425 -12.55 28.9725 -14.25 29.3125 C-14.25 29.9725 -14.25 30.6325 -14.25 31.3125 C-16.56 31.9725 -18.87 32.6325 -21.25 33.3125 C-21.25 33.9725 -21.25 34.6325 -21.25 35.3125 C-23.56 35.9725 -25.87 36.6325 -28.25 37.3125 C-28.25 37.9725 -28.25 38.6325 -28.25 39.3125 C-31.22 39.8075 -31.22 39.8075 -34.25 40.3125 C-33.92 40.9725 -33.59 41.6325 -33.25 42.3125 C-35.56 42.9725 -37.87 43.6325 -40.25 44.3125 C-40.25 44.9725 -40.25 45.6325 -40.25 46.3125 C-42.56 46.9725 -44.87 47.6325 -47.25 48.3125 C-47.25 48.9725 -47.25 49.6325 -47.25 50.3125 C-49.23 50.6425 -51.21 50.9725 -53.25 51.3125 C-53.745 52.7975 -53.745 52.7975 -54.25 54.3125 C-56.23 54.6425 -58.21 54.9725 -60.25 55.3125 C-59.92 55.9725 -59.59 56.6325 -59.25 57.3125 C-61.56 57.9725 -63.87 58.6325 -66.25 59.3125 C-66.25 59.9725 -66.25 60.6325 -66.25 61.3125 C-68.23 61.6425 -70.21 61.9725 -72.25 62.3125 C-72.58 63.3025 -72.91 64.2925 -73.25 65.3125 C-75.23 65.6425 -77.21 65.9725 -79.25 66.3125 C-79.58 67.3025 -79.91 68.2925 -80.25 69.3125 C-81.9 69.6425 -83.55 69.9725 -85.25 70.3125 C-85.25 70.9725 -85.25 71.6325 -85.25 72.3125 C-87.56 72.9725 -89.87 73.6325 -92.25 74.3125 C-92.25 74.9725 -92.25 75.6325 -92.25 76.3125 C-94.23 76.6425 -96.21 76.9725 -98.25 77.3125 C-98.58 78.3025 -98.91 79.2925 -99.25 80.3125 C-101.23 80.6425 -103.21 80.9725 -105.25 81.3125 C-105.58 82.3025 -105.91 83.2925 -106.25 84.3125 C-108.725 84.8075 -108.725 84.8075 -111.25 85.3125 C-111.25 85.9725 -111.25 86.6325 -111.25 87.3125 C-114.715 88.3025 -114.715 88.3025 -118.25 89.3125 C-118.25 89.9725 -118.25 90.6325 -118.25 91.3125 C-121.22 91.8075 -121.22 91.8075 -124.25 92.3125 C-124.745 93.7975 -124.745 93.7975 -125.25 95.3125 C-128.22 95.8075 -128.22 95.8075 -131.25 96.3125 C-131.745 97.7975 -131.745 97.7975 -132.25 99.3125 C-134.725 99.8075 -134.725 99.8075 -137.25 100.3125 C-137.25 100.9725 -137.25 101.6325 -137.25 102.3125 C-140.715 103.3025 -140.715 103.3025 -144.25 104.3125 C-144.25 104.9725 -144.25 105.6325 -144.25 106.3125 C-147.22 106.8075 -147.22 106.8075 -150.25 107.3125 C-150.58 108.3025 -150.91 109.2925 -151.25 110.3125 C-152.03375 110.415625 -152.8175 110.51875 -153.625 110.625 C-156.58045181 111.08845022 -156.58045181 111.08845022 -158.25 114.3125 C-160.875 115 -160.875 115 -163.25 115.3125 C-163.25 115.9725 -163.25 116.6325 -163.25 117.3125 C-166.22 117.8075 -166.22 117.8075 -169.25 118.3125 C-169.9314823 120.20429203 -169.9314823 120.20429203 -170.25 122.3125 C-169.59 122.9725 -168.93 123.6325 -168.25 124.3125 C-167.92 124.9725 -167.59 125.6325 -167.25 126.3125 C-166.63125 126.456875 -166.0125 126.60125 -165.375 126.75 C-162.84483302 127.41975008 -162.06941889 128.49308111 -160.25 130.3125 C-158.92139075 130.66419068 -157.58841672 131.00020276 -156.25 131.3125 C-155.92 131.9725 -155.59 132.6325 -155.25 133.3125 C-152.22065509 133.97022428 -152.22065509 133.97022428 -149.25 134.3125 C-148.92 135.3025 -148.59 136.2925 -148.25 137.3125 C-146.92203709 137.66662344 -145.58783393 137.99771554 -144.25 138.3125 C-143.25 139.3125 -142.25 140.3125 -141.25 141.3125 C-139.92139075 141.66419068 -138.58841672 142.00020276 -137.25 142.3125 C-136.92 142.9725 -136.59 143.6325 -136.25 144.3125 C-133.22065509 144.97022428 -133.22065509 144.97022428 -130.25 145.3125 C-129.92 146.3025 -129.59 147.2925 -129.25 148.3125 C-127.92696283 148.6846042 -126.59262065 149.01880173 -125.25 149.3125 C-124.92 149.9725 -124.59 150.6325 -124.25 151.3125 C-121.22065509 151.97022428 -121.22065509 151.97022428 -118.25 152.3125 C-117.92 153.3025 -117.59 154.2925 -117.25 155.3125 C-115.27 155.6425 -113.29 155.9725 -111.25 156.3125 C-110.92 157.3025 -110.59 158.2925 -110.25 159.3125 C-108.92203709 159.66662344 -107.58783393 159.99771554 -106.25 160.3125 C-105.25 161.3125 -104.25 162.3125 -103.25 163.3125 C-102.59 163.4775 -101.93 163.6425 -101.25 163.8125 C-98.79458029 164.42635493 -98.01233218 165.55016782 -96.25 167.3125 C-94.92139075 167.66419068 -93.58841672 168.00020276 -92.25 168.3125 C-91.92 168.9725 -91.59 169.6325 -91.25 170.3125 C-90.63125 170.456875 -90.0125 170.60125 -89.375 170.75 C-86.84483302 171.41975008 -86.06941889 172.49308111 -84.25 174.3125 C-83.59 174.4775 -82.93 174.6425 -82.25 174.8125 C-79.79458029 175.42635493 -79.01233218 176.55016782 -77.25 178.3125 C-75.92139075 178.66419068 -74.58841672 179.00020276 -73.25 179.3125 C-72.92 179.9725 -72.59 180.6325 -72.25 181.3125 C-71.0434375 181.5290625 -71.0434375 181.5290625 -69.8125 181.75 C-67.25 182.3125 -67.25 182.3125 -65.25 185.3125 C-63.92405895 185.67412029 -62.59061543 186.00978039 -61.25 186.3125 C-60.92 186.9725 -60.59 187.6325 -60.25 188.3125 C-57.22065509 188.97022428 -57.22065509 188.97022428 -54.25 189.3125 C-53.92 190.3025 -53.59 191.2925 -53.25 192.3125 C-51.27 192.6425 -49.29 192.9725 -47.25 193.3125 C-46.92 194.3025 -46.59 195.2925 -46.25 196.3125 C-44.92696283 196.6846042 -43.59262065 197.01880173 -42.25 197.3125 C-41.92 197.9725 -41.59 198.6325 -41.25 199.3125 C-38.22065509 199.97022428 -38.22065509 199.97022428 -35.25 200.3125 C-34.92 201.3025 -34.59 202.2925 -34.25 203.3125 C-32.27 203.6425 -30.29 203.9725 -28.25 204.3125 C-28.58 204.9725 -28.91 205.6325 -29.25 206.3125 C-27.27 206.6425 -25.29 206.9725 -23.25 207.3125 C-22.92 208.3025 -22.59 209.2925 -22.25 210.3125 C-20.27 210.6425 -18.29 210.9725 -16.25 211.3125 C-15.92 212.3025 -15.59 213.2925 -15.25 214.3125 C-13.27 214.6425 -11.29 214.9725 -9.25 215.3125 C-9.58 215.9725 -9.91 216.6325 -10.25 217.3125 C-8.27 217.6425 -6.29 217.9725 -4.25 218.3125 C-3.92 219.3025 -3.59 220.2925 -3.25 221.3125 C-0.01626595 222.71970734 2.0904738 222.12599698 5.3125 220.9375 C6.07691406 220.66164062 6.84132813 220.38578125 7.62890625 220.1015625 C8.32886719 219.84117187 9.02882813 219.58078125 9.75 219.3125 C10.74 218.9825 11.73 218.6525 12.75 218.3125 C14.08888882 216.98474539 15.42156858 215.65071729 16.75 214.3125 C18.35916436 213.19524279 20.00721626 212.13213463 21.6875 211.125 C22.52152344 210.61582031 23.35554687 210.10664063 24.21484375 209.58203125 C26.75 208.3125 26.75 208.3125 29.44140625 207.82421875 C32.11807555 207.51037114 32.11807555 207.51037114 33.75 204.3125 C34.925625 204.0959375 34.925625 204.0959375 36.125 203.875 C39.43303951 203.16613439 40.42918401 201.70584149 42.75 199.3125 C45.38037063 198.09354776 47.99966202 197.22927933 50.75 196.3125 C52.08888882 194.98474539 53.42156858 193.65071729 54.75 192.3125 C56.35916436 191.19524279 58.00721626 190.13213463 59.6875 189.125 C60.52152344 188.61582031 61.35554687 188.10664063 62.21484375 187.58203125 C64.75 186.3125 64.75 186.3125 67.44140625 185.82421875 C70.11807555 185.51037114 70.11807555 185.51037114 71.75 182.3125 C72.925625 182.0959375 72.925625 182.0959375 74.125 181.875 C77.43303951 181.16613439 78.42918401 179.70584149 80.75 177.3125 C83.38037063 176.09354776 85.99966202 175.22927933 88.75 174.3125 C89.41 173.3225 90.07 172.3325 90.75 171.3125 C91.925625 171.0959375 91.925625 171.0959375 93.125 170.875 C96.45835018 170.16071067 97.37167686 168.71248364 99.75 166.3125 C101.35916436 165.19524279 103.00721626 164.13213463 104.6875 163.125 C105.52152344 162.61582031 106.35554688 162.10664063 107.21484375 161.58203125 C109.75 160.3125 109.75 160.3125 112.31640625 159.88671875 C115.47276117 159.14196085 116.55931052 157.65752377 118.75 155.3125 C120.35916436 154.19524279 122.00721626 153.13213463 123.6875 152.125 C124.52152344 151.61582031 125.35554688 151.10664063 126.21484375 150.58203125 C128.75 149.3125 128.75 149.3125 131.31640625 148.88671875 C134.47276117 148.14196085 135.55931052 146.65752377 137.75 144.3125 C139.35916436 143.19524279 141.00721626 142.13213463 142.6875 141.125 C143.52152344 140.61582031 144.35554688 140.10664063 145.21484375 139.58203125 C147.75 138.3125 147.75 138.3125 150.31640625 137.88671875 C153.47276117 137.14196085 154.55931052 135.65752377 156.75 133.3125 C158.35916436 132.19524279 160.00721626 131.13213463 161.6875 130.125 C162.52152344 129.61582031 163.35554688 129.10664063 164.21484375 128.58203125 C166.75 127.3125 166.75 127.3125 169.37890625 126.94921875 C172.01893263 126.51089418 172.01893263 126.51089418 173.5625 123.75 C173.954375 122.945625 174.34625 122.14125 174.75 121.3125 C173.90695312 120.84199219 173.06390625 120.37148437 172.1953125 119.88671875 C171.09960938 119.26410156 170.00390625 118.64148438 168.875 118 C167.78445313 117.38511719 166.69390625 116.77023438 165.5703125 116.13671875 C162.75 114.3125 162.75 114.3125 160.75 111.3125 C159.925 111.1475 159.1 110.9825 158.25 110.8125 C157.425 110.6475 156.6 110.4825 155.75 110.3125 C155.09 109.3225 154.43 108.3325 153.75 107.3125 C152.08758987 106.9585488 150.41994325 106.62900975 148.75 106.3125 C146.64920078 105.26075199 144.5869835 104.12955612 142.5625 102.9375 C141.51707031 102.33164063 140.47164063 101.72578125 139.39453125 101.1015625 C136.75 99.3125 136.75 99.3125 134.75 96.3125 C133.925 96.1475 133.1 95.9825 132.25 95.8125 C131.425 95.6475 130.6 95.4825 129.75 95.3125 C129.09 94.3225 128.43 93.3325 127.75 92.3125 C126.08792867 91.95696126 124.42021179 91.6275896 122.75 91.3125 C120.69084218 90.28156816 118.67050252 89.17074864 116.6875 88 C115.15416016 87.10861328 115.15416016 87.10861328 113.58984375 86.19921875 C110.75 84.3125 110.75 84.3125 108.578125 82.13671875 C106.77511435 80.03731267 106.77511435 80.03731267 103.5625 79.4375 C98.63770001 77.98428033 94.76779445 75.48535056 90.75 72.3125 C90.42 71.6525 90.09 70.9925 89.75 70.3125 C88.945625 70.168125 88.14125 70.02375 87.3125 69.875 C84.75 69.3125 84.75 69.3125 82.75 66.3125 C81.96625 66.168125 81.1825 66.02375 80.375 65.875 C77.07852083 65.16861161 76.09453048 63.65703048 73.75 61.3125 C72.945625 61.168125 72.14125 61.02375 71.3125 60.875 C67.73739595 60.09022106 66.29980221 57.86230221 63.75 55.3125 C62.09450469 54.92750109 60.4277567 54.58456865 58.75 54.3125 C58.09 53.3225 57.43 52.3325 56.75 51.3125 C55.08758987 50.9585488 53.41994325 50.62900975 51.75 50.3125 C49.64920078 49.26075199 47.5869835 48.12955612 45.5625 46.9375 C44.51707031 46.33164063 43.47164062 45.72578125 42.39453125 45.1015625 C39.75 43.3125 39.75 43.3125 37.75 40.3125 C36.925 40.1475 36.1 39.9825 35.25 39.8125 C34.425 39.6475 33.6 39.4825 32.75 39.3125 C31.76 37.8275 31.76 37.8275 30.75 36.3125 C29.08792867 35.95696126 27.42021179 35.6275896 25.75 35.3125 C23.69084218 34.28156816 21.67050252 33.17074864 19.6875 32 C18.66527344 31.40574219 17.64304687 30.81148437 16.58984375 30.19921875 C13.75 28.3125 13.75 28.3125 11.73828125 26.19140625 C9.26989151 23.85880219 7.2811229 23.34371974 4 22.5625 C3.01515625 22.32015625 2.0303125 22.0778125 1.015625 21.828125 C0.26796875 21.65796875 -0.4796875 21.4878125 -1.25 21.3125 Z M-184.25 136.3125 C-184.25 204.6225 -184.25 272.9325 -184.25 343.3125 C-183.92 343.3125 -183.59 343.3125 -183.25 343.3125 C-183.25 275.0025 -183.25 206.6925 -183.25 136.3125 C-183.58 136.3125 -183.91 136.3125 -184.25 136.3125 Z M186.75 137.3125 C186.75 205.2925 186.75 273.2725 186.75 343.3125 C187.08 343.3125 187.41 343.3125 187.75 343.3125 C187.75 275.3325 187.75 207.3525 187.75 137.3125 C187.42 137.3125 187.09 137.3125 186.75 137.3125 Z M-182.25 139.3125 C-182.25 206.9625 -182.25 274.6125 -182.25 344.3125 C-180.6 344.6425 -178.95 344.9725 -177.25 345.3125 C-176.92 346.3025 -176.59 347.2925 -176.25 348.3125 C-174.27 348.6425 -172.29 348.9725 -170.25 349.3125 C-169.92 350.3025 -169.59 351.2925 -169.25 352.3125 C-167.27 352.6425 -165.29 352.9725 -163.25 353.3125 C-162.92 354.3025 -162.59 355.2925 -162.25 356.3125 C-159.94 356.6425 -157.63 356.9725 -155.25 357.3125 C-155.25 356.27421145 -155.25 355.23592291 -155.25 354.16617107 C-155.25 286.88161405 -155.25 219.59705702 -155.25 152.3125 C-155.86488281 152.14234375 -156.47976562 151.9721875 -157.11328125 151.796875 C-161.87696286 150.36853027 -164.4269979 149.54700315 -167.25 145.3125 C-168.9 144.9825 -170.55 144.6525 -172.25 144.3125 C-175.55 142.6625 -178.85 141.0125 -182.25 139.3125 Z M182.75 139.3125 C182.42 140.3025 182.09 141.2925 181.75 142.3125 C179.77 142.6425 177.79 142.9725 175.75 143.3125 C175.42 144.3025 175.09 145.2925 174.75 146.3125 C173.1 146.6425 171.45 146.9725 169.75 147.3125 C169.75 147.9725 169.75 148.6325 169.75 149.3125 C167.44 149.9725 165.13 150.6325 162.75 151.3125 C162.75 151.9725 162.75 152.6325 162.75 153.3125 C161.780625 153.456875 160.81125 153.60125 159.8125 153.75 C156.88513227 153.98812341 156.88513227 153.98812341 155.75 155.3125 C155.65217749 157.96796573 155.62005853 160.59740915 155.62974548 163.25331116 C155.62889106 164.09537737 155.62803663 164.93744358 155.62715632 165.80502695 C155.62549893 168.64876629 155.6310271 171.49244766 155.63647461 174.33618164 C155.63675645 176.36585997 155.63659881 178.3955384 155.6360321 180.42521667 C155.63574401 185.95391561 155.6416426 191.48259305 155.64860606 197.01128697 C155.65483768 202.78221736 155.65544325 208.55314819 155.65663147 214.32408142 C155.65974535 225.2605036 155.66795951 236.19691583 155.67798096 247.13333362 C155.68914033 259.58051891 155.6946521 272.02770465 155.69967639 284.47489369 C155.71014208 310.08743465 155.72774262 335.69996677 155.75 361.3125 C156.08 360.3225 156.41 359.3325 156.75 358.3125 C157.306875 358.580625 157.86375 358.84875 158.4375 359.125 C159.200625 359.186875 159.96375 359.24875 160.75 359.3125 C161.90692775 358.18959954 163.05297007 357.05268536 164.1328125 355.85546875 C167.8675696 352.29211355 173.09409491 348.69428636 178.25 347.953125 C181.96091417 347.00220324 183.37105564 345.28635266 185.75 342.3125 C186.23204305 339.35872622 186.40690258 336.98902308 186.35127258 334.04252625 C186.35554471 333.21337654 186.35981683 332.38422684 186.36421841 331.52995139 C186.37245017 328.75338499 186.34496107 325.97833135 186.31762695 323.2019043 C186.31621652 321.21104467 186.31700837 319.22018245 186.31983948 317.22932434 C186.32127521 311.82460657 186.29185952 306.4204426 186.25696969 301.01585364 C186.22573268 295.36776006 186.22277754 289.71965406 186.21684265 284.07148743 C186.20129644 273.37590925 186.16025727 262.68058633 186.1100952 251.98512059 C186.05422608 239.80873065 186.02672132 227.63232857 186.00161803 215.45584238 C185.94934226 190.40792002 185.86138467 165.36022431 185.75 140.3125 C184.76 139.9825 183.77 139.6525 182.75 139.3125 Z M-154.25 154.3125 C-154.58 222.2925 -154.91 290.2725 -155.25 360.3125 C-154.59 360.3125 -153.93 360.3125 -153.25 360.3125 C-153.25 292.3325 -153.25 224.3525 -153.25 154.3125 C-153.58 154.3125 -153.91 154.3125 -154.25 154.3125 Z M-136.25 164.3125 C-136.25 232.6225 -136.25 300.9325 -136.25 371.3125 C-135.92 371.3125 -135.59 371.3125 -135.25 371.3125 C-135.25 303.0025 -135.25 234.6925 -135.25 164.3125 C-135.58 164.3125 -135.91 164.3125 -136.25 164.3125 Z M136.75 166.3125 C136.75 234.2925 136.75 302.2725 136.75 372.3125 C137.08 372.3125 137.41 372.3125 137.75 372.3125 C137.75 304.3325 137.75 236.3525 137.75 166.3125 C137.42 166.3125 137.09 166.3125 136.75 166.3125 Z M-134.25 167.3125 C-134.25 234.3025 -134.25 301.2925 -134.25 370.3125 C-132.93 370.9725 -131.61 371.6325 -130.25 372.3125 C-130.745 373.3025 -130.745 373.3025 -131.25 374.3125 C-129.27 374.6425 -127.29 374.9725 -125.25 375.3125 C-124.92 376.3025 -124.59 377.2925 -124.25 378.3125 C-122.27 378.6425 -120.29 378.9725 -118.25 379.3125 C-117.92 380.3025 -117.59 381.2925 -117.25 382.3125 C-115.27 382.6425 -113.29 382.9725 -111.25 383.3125 C-110.92 384.3025 -110.59 385.2925 -110.25 386.3125 C-109.26 385.9825 -108.27 385.6525 -107.25 385.3125 C-107.17997479 358.91368966 -107.12704366 332.51489321 -107.09456348 306.11600876 C-107.07908274 293.85904591 -107.05797015 281.6021407 -107.02368164 269.34521484 C-106.99381625 258.66432414 -106.97443378 247.98347518 -106.96773452 237.30254388 C-106.96381741 231.64504089 -106.95458659 225.98765734 -106.93280983 220.33019257 C-106.9124899 215.00822501 -106.90615711 209.68642641 -106.91067696 204.36442375 C-106.90984974 202.40845002 -106.90385744 200.45247079 -106.89238358 198.49653053 C-106.87750977 195.83087204 -106.88102763 193.16585573 -106.88923645 190.50018311 C-106.87612866 189.3328664 -106.87612866 189.3328664 -106.86275607 188.14196754 C-106.88962152 184.92568835 -107.04967331 182.67254911 -108.62874889 179.83446121 C-110.75689636 177.83664738 -112.39202394 177.80054801 -115.25 177.3125 C-117.35079922 176.26075199 -119.4130165 175.12955612 -121.4375 173.9375 C-122.48292969 173.33164063 -123.52835938 172.72578125 -124.60546875 172.1015625 C-127.25 170.3125 -127.25 170.3125 -129.25 167.3125 C-130.9 167.3125 -132.55 167.3125 -134.25 167.3125 Z M132.75 168.3125 C132.42 169.3025 132.09 170.2925 131.75 171.3125 C128.1875 172.5 128.1875 172.5 124.75 173.3125 C124.75 173.9725 124.75 174.6325 124.75 175.3125 C122.77 175.6425 120.79 175.9725 118.75 176.3125 C118.42 177.3025 118.09 178.2925 117.75 179.3125 C115.77 179.6425 113.79 179.9725 111.75 180.3125 C112.08 180.9725 112.41 181.6325 112.75 182.3125 C110.77 183.3025 110.77 183.3025 108.75 184.3125 C108.75 250.9725 108.75 317.6325 108.75 386.3125 C113.37207786 384.46366886 117.09013455 382.31075777 121.25 379.65234375 C123.75 378.3125 123.75 378.3125 126.4375 377.81640625 C129.11833966 377.51276874 129.11833966 377.51276874 130.75 374.3125 C132.4 373.9825 134.05 373.6525 135.75 373.3125 C135.75 305.9925 135.75 238.6725 135.75 169.3125 C134.76 168.9825 133.77 168.6525 132.75 168.3125 Z M-106.25 181.3125 C-106.25 249.6225 -106.25 317.9325 -106.25 388.3125 C-105.92 388.3125 -105.59 388.3125 -105.25 388.3125 C-105.25 320.0025 -105.25 251.6925 -105.25 181.3125 C-105.58 181.3125 -105.91 181.3125 -106.25 181.3125 Z M106.75 183.3125 C106.75 251.2925 106.75 319.2725 106.75 389.3125 C107.08 389.3125 107.41 389.3125 107.75 389.3125 C107.75 321.3325 107.75 253.3525 107.75 183.3125 C107.42 183.3125 107.09 183.3125 106.75 183.3125 Z M-87.25 192.3125 C-87.25 260.6225 -87.25 328.9325 -87.25 399.3125 C-86.92 399.3125 -86.59 399.3125 -86.25 399.3125 C-86.25 331.0025 -86.25 262.6925 -86.25 192.3125 C-86.58 192.3125 -86.91 192.3125 -87.25 192.3125 Z M87.75 194.3125 C87.75 195.6325 87.75 196.9525 87.75 198.3125 C85.44 198.3125 83.13 198.3125 80.75 198.3125 C80.42 199.3025 80.09 200.2925 79.75 201.3125 C77.77 201.6425 75.79 201.9725 73.75 202.3125 C73.42 203.3025 73.09 204.2925 72.75 205.3125 C71.1 205.6425 69.45 205.9725 67.75 206.3125 C67.75 206.9725 67.75 207.6325 67.75 208.3125 C65.44 208.9725 63.13 209.6325 60.75 210.3125 C60.75 210.9725 60.75 211.6325 60.75 212.3125 C59.76 212.3125 58.77 212.3125 57.75 212.3125 C57.75 279.9625 57.75 347.6125 57.75 417.3125 C58.41 416.9825 59.07 416.6525 59.75 416.3125 C60.348125 416.23 60.94625 416.1475 61.5625 416.0625 C64.02093816 415.39869855 64.02093816 415.39869855 66.1875 412.875 C68.74215323 410.32034677 70.36434982 409.38165269 73.75 408.3125 C77.02773504 407.56099977 77.02773504 407.56099977 78.75 404.3125 C80.41666667 403.97916667 82.08333333 403.64583333 83.75 403.3125 C84.41 402.3225 85.07 401.3325 85.75 400.3125 C86.74 400.3125 87.73 400.3125 88.75 400.3125 C88.75 332.3325 88.75 264.3525 88.75 194.3125 C88.42 194.3125 88.09 194.3125 87.75 194.3125 Z M-85.25 196.3125 C-85.25 263.6325 -85.25 330.9525 -85.25 400.3125 C-83.6 400.6425 -81.95 400.9725 -80.25 401.3125 C-79.92 402.3025 -79.59 403.2925 -79.25 404.3125 C-77.27 404.6425 -75.29 404.9725 -73.25 405.3125 C-72.92 406.3025 -72.59 407.2925 -72.25 408.3125 C-70.27 408.6425 -68.29 408.9725 -66.25 409.3125 C-65.92 410.3025 -65.59 411.2925 -65.25 412.3125 C-62.94 412.6425 -60.63 412.9725 -58.25 413.3125 C-58.1099499 386.91374989 -58.00408771 360.5150553 -57.93912697 334.11600876 C-57.90816525 321.85895127 -57.86594022 309.60212435 -57.79736328 297.34521484 C-57.7376325 286.664323 -57.69886772 275.9835981 -57.68546903 265.30254388 C-57.67763461 259.64488326 -57.65917351 253.98770034 -57.61561966 248.33019257 C-57.57497878 243.0080912 -57.5623138 237.68666555 -57.57135391 232.36442375 C-57.56969946 230.40842203 -57.55771404 228.45239835 -57.53476715 226.49653053 C-57.50501254 223.83024439 -57.51205113 221.16652578 -57.5284729 218.50018311 C-57.51099585 217.72197197 -57.4935188 216.94376083 -57.47551215 216.14196754 C-57.45073791 213.70649275 -57.45073791 213.70649275 -58.25 210.3125 C-61.11639622 207.86965205 -61.11639622 207.86965205 -64.25 206.3125 C-64.58 205.6525 -64.91 204.9925 -65.25 204.3125 C-65.96929687 204.17972656 -66.68859375 204.04695312 -67.4296875 203.91015625 C-70.93648398 203.16702625 -73.33545354 201.63543295 -76.375 199.75 C-80.51313291 197.01255543 -80.51313291 197.01255543 -85.25 196.3125 Z M-57.25 210.3125 C-57.25 278.2925 -57.25 346.2725 -57.25 416.3125 C-56.92 416.3125 -56.59 416.3125 -56.25 416.3125 C-56.25 348.3325 -56.25 280.3525 -56.25 210.3125 C-56.58 210.3125 -56.91 210.3125 -57.25 210.3125 Z M-39.25 220.3125 C-39.25 288.6225 -39.25 356.9325 -39.25 427.3125 C-37.27 427.6425 -35.29 427.9725 -33.25 428.3125 C-32.92 429.3025 -32.59 430.2925 -32.25 431.3125 C-30.92696283 431.6846042 -29.59262065 432.01880173 -28.25 432.3125 C-27.92 432.9725 -27.59 433.6325 -27.25 434.3125 C-24.22065509 434.97022428 -24.22065509 434.97022428 -21.25 435.3125 C-20.92 436.3025 -20.59 437.2925 -20.25 438.3125 C-18.27 438.6425 -16.29 438.9725 -14.25 439.3125 C-13.92 440.3025 -13.59 441.2925 -13.25 442.3125 C-12.26 441.9825 -11.27 441.6525 -10.25 441.3125 C-10.08653312 414.9483206 -9.96306553 388.58421707 -9.8873148 362.2196331 C-9.85120867 349.97828107 -9.80197668 337.73724378 -9.72192383 325.49609375 C-9.65218903 314.82763401 -9.60700077 304.15940219 -9.59138054 293.49072087 C-9.58224858 287.8407445 -9.56076346 282.1914202 -9.5098896 276.54165268 C-9.4623976 271.22440514 -9.44771492 265.9080786 -9.45824623 260.59063911 C-9.45631949 258.638689 -9.4423818 256.68670828 -9.41556168 254.73494148 C-9.38072364 252.06905995 -9.38910163 249.40665419 -9.40821838 246.74069214 C-9.38782849 245.96830668 -9.3674386 245.19592123 -9.34643084 244.40013015 C-9.41092607 241.07259757 -9.60416977 239.0902308 -11.77239215 236.47918344 C-15.25999323 233.38005934 -17.65678226 232.15861906 -22.25 231.3125 C-23.91666667 229.64583333 -25.58333333 227.97916667 -27.25 226.3125 C-28.90549531 225.92750109 -30.5722433 225.58456865 -32.25 225.3125 C-32.91 224.3225 -33.57 223.3325 -34.25 222.3125 C-35.57 222.6425 -36.89 222.9725 -38.25 223.3125 C-38.58 222.3225 -38.91 221.3325 -39.25 220.3125 Z M39.75 222.3125 C39.75 290.2925 39.75 358.2725 39.75 428.3125 C40.08 428.3125 40.41 428.3125 40.75 428.3125 C40.75 360.3325 40.75 292.3525 40.75 222.3125 C40.42 222.3125 40.09 222.3125 39.75 222.3125 Z M35.75 224.3125 C35.42 225.3025 35.09 226.2925 34.75 227.3125 C33.1 227.6425 31.45 227.9725 29.75 228.3125 C29.75 228.9725 29.75 229.6325 29.75 230.3125 C27.77 230.6425 25.79 230.9725 23.75 231.3125 C23.42 232.3025 23.09 233.2925 22.75 234.3125 C20.77 234.6425 18.79 234.9725 16.75 235.3125 C16.42 236.3025 16.09 237.2925 15.75 238.3125 C13.77 238.6425 11.79 238.9725 9.75 239.3125 C9.75 307.2925 9.75 375.2725 9.75 445.3125 C10.41 444.3225 11.07 443.3325 11.75 442.3125 C13.39861667 441.60236951 15.0684355 440.94064255 16.75 440.3125 C19.28995441 438.81630811 21.7662012 437.23964642 24.25 435.65234375 C26.75 434.3125 26.75 434.3125 29.4375 433.81640625 C32.11833966 433.51276874 32.11833966 433.51276874 33.75 430.3125 C35.4 429.9825 37.05 429.6525 38.75 429.3125 C38.75 361.9925 38.75 294.6725 38.75 225.3125 C37.76 224.9825 36.77 224.6525 35.75 224.3125 Z M-9.25 237.3125 C-9.25 305.6225 -9.25 373.9325 -9.25 444.3125 C-8.92 444.3125 -8.59 444.3125 -8.25 444.3125 C-8.25 376.0025 -8.25 307.6925 -8.25 237.3125 C-8.58 237.3125 -8.91 237.3125 -9.25 237.3125 Z " fill="#000000" transform="translate(254.25,20.6875)"/>
<path d="M0 0 C0.33 0 0.66 0 1 0 C1 77.22 1 154.44 1 234 C0.67 234 0.34 234 0 234 C0 156.78 0 79.56 0 0 Z " fill="#000000" transform="translate(461,139)"/>
<path d="M0 0 C0.33 0 0.66 0 1 0 C1 77.22 1 154.44 1 234 C0.67 234 0.34 234 0 234 C0 156.78 0 79.56 0 0 Z " fill="#000000" transform="translate(50,139)"/>
<path d="M0 0 C3 1 3 1 3 1 Z " fill="#000000" transform="translate(255,19)"/>
<path d="M0 0 C2 1 2 1 2 1 Z " fill="#000000" transform="translate(253,491)"/>
<path d="M0 0 C2 1 2 1 2 1 Z " fill="#000000" transform="translate(259,490)"/>
<path d="M0 0 C2 1 2 1 2 1 Z " fill="#000000" transform="translate(246,487)"/>
<path d="M0 0 C2 1 2 1 2 1 Z " fill="#000000" transform="translate(266,486)"/>
<path d="M0 0 C2 1 2 1 2 1 Z " fill="#000000" transform="translate(271,483)"/>
<path d="M0 0 C2 1 2 1 2 1 Z " fill="#000000" transform="translate(239,483)"/>
<path d="M0 0 C2 1 2 1 2 1 Z " fill="#000000" transform="translate(273,482)"/>
<path d="M0 0 C2 1 2 1 2 1 Z " fill="#000000" transform="translate(278,479)"/>
<path d="M0 0 C2 1 2 1 2 1 Z " fill="#000000" transform="translate(285,475)"/>
<path d="M0 0 C2 1 2 1 2 1 Z " fill="#000000" transform="translate(220,472)"/>
<path d="M0 0 C2 1 2 1 2 1 Z " fill="#000000" transform="translate(292,471)"/>
<path d="M0 0 C2 1 2 1 2 1 Z " fill="#000000" transform="translate(297,468)"/>
<path d="M0 0 C2 1 2 1 2 1 Z " fill="#000000" transform="translate(304,464)"/>
<path d="M0 0 C2 1 2 1 2 1 Z " fill="#000000" transform="translate(241,461)"/>
<path d="M0 0 C2 1 2 1 2 1 Z " fill="#000000" transform="translate(201,461)"/>
<path d="M0 0 C2 1 2 1 2 1 Z " fill="#000000" transform="translate(311,460)"/>
<path d="M0 0 C2 1 2 1 2 1 Z " fill="#000000" transform="translate(316,457)"/>
<path d="M0 0 C2 1 2 1 2 1 Z " fill="#000000" transform="translate(234,457)"/>
<path d="M0 0 C2 1 2 1 2 1 Z " fill="#000000" transform="translate(194,457)"/>
<path d="M0 0 C2 1 2 1 2 1 Z " fill="#000000" transform="translate(318,456)"/>
<path d="M0 0 C2 1 2 1 2 1 Z " fill="#000000" transform="translate(323,453)"/>
<path d="M0 0 C2 1 2 1 2 1 Z " fill="#000000" transform="translate(283,453)"/>
<path d="M0 0 C2 1 2 1 2 1 Z " fill="#000000" transform="translate(227,453)"/>
<path d="M0 0 C2 1 2 1 2 1 Z " fill="#000000" transform="translate(222,450)"/>
<path d="M0 0 C2 1 2 1 2 1 Z " fill="#000000" transform="translate(330,449)"/>
<path d="M0 0 C2 1 2 1 2 1 Z " fill="#000000" transform="translate(290,449)"/>
<path d="M0 0 C2 1 2 1 2 1 Z " fill="#000000" transform="translate(175,446)"/>
<path d="M0 0 C2 1 2 1 2 1 Z " fill="#000000" transform="translate(337,445)"/>
<path d="M0 0 C2 1 2 1 2 1 Z " fill="#000000" transform="translate(342,442)"/>
<path d="M0 0 C2 1 2 1 2 1 Z " fill="#000000" transform="translate(168,442)"/>
<path d="M0 0 C2 1 2 1 2 1 Z " fill="#000000" transform="translate(344,441)"/>
<path d="M0 0 C2 1 2 1 2 1 Z " fill="#000000" transform="translate(349,438)"/>
<path d="M0 0 C2 1 2 1 2 1 Z " fill="#000000" transform="translate(161,438)"/>
<path d="M0 0 C2 1 2 1 2 1 Z " fill="#000000" transform="translate(356,434)"/>
<path d="M0 0 C2 1 2 1 2 1 Z " fill="#000000" transform="translate(316,434)"/>
<path d="M0 0 C2 1 2 1 2 1 Z " fill="#000000" transform="translate(189,431)"/>
<path d="M0 0 C2 1 2 1 2 1 Z " fill="#000000" transform="translate(149,431)"/>
<path d="M0 0 C2 1 2 1 2 1 Z " fill="#000000" transform="translate(363,430)"/>
<path d="M0 0 C2 1 2 1 2 1 Z " fill="#000000" transform="translate(184,428)"/>
<path d="M0 0 C2 1 2 1 2 1 Z " fill="#000000" transform="translate(368,427)"/>
<path d="M0 0 C2 1 2 1 2 1 Z " fill="#000000" transform="translate(328,427)"/>
<path d="M0 0 C2 1 2 1 2 1 Z " fill="#000000" transform="translate(182,427)"/>
<path d="M0 0 C2 1 2 1 2 1 Z " fill="#000000" transform="translate(142,427)"/>
<path d="M0 0 C2 1 2 1 2 1 Z " fill="#000000" transform="translate(370,426)"/>
<path d="M0 0 C2 1 2 1 2 1 Z " fill="#000000" transform="translate(177,424)"/>
<path d="M0 0 C2 1 2 1 2 1 Z " fill="#000000" transform="translate(375,423)"/>
<path d="M0 0 C2 1 2 1 2 1 Z " fill="#000000" transform="translate(335,423)"/>
<path d="M0 0 C2 1 2 1 2 1 Z " fill="#000000" transform="translate(175,423)"/>
<path d="M0 0 C2 1 2 1 2 1 Z " fill="#000000" transform="translate(170,420)"/>
<path d="M0 0 C2 1 2 1 2 1 Z " fill="#000000" transform="translate(130,420)"/>
<path d="M0 0 C2 1 2 1 2 1 Z " fill="#000000" transform="translate(382,419)"/>
<path d="M0 0 C2 1 2 1 2 1 Z " fill="#000000" transform="translate(123,416)"/>
<path d="M0 0 C2 1 2 1 2 1 Z " fill="#000000" transform="translate(389,415)"/>
<path d="M0 0 C2 1 2 1 2 1 Z " fill="#000000" transform="translate(394,412)"/>
<path d="M0 0 C2 1 2 1 2 1 Z " fill="#000000" transform="translate(401,408)"/>
<path d="M0 0 C2 1 2 1 2 1 Z " fill="#000000" transform="translate(144,405)"/>
<path d="M0 0 C2 1 2 1 2 1 Z " fill="#000000" transform="translate(104,405)"/>
<path d="M0 0 C2 1 2 1 2 1 Z " fill="#000000" transform="translate(408,404)"/>
<path d="M0 0 C2 1 2 1 2 1 Z " fill="#000000" transform="translate(413,401)"/>
<path d="M0 0 C2 1 2 1 2 1 Z " fill="#000000" transform="translate(137,401)"/>
<path d="M0 0 C2 1 2 1 2 1 Z " fill="#000000" transform="translate(97,401)"/>
<path d="M0 0 C2 1 2 1 2 1 Z " fill="#000000" transform="translate(132,398)"/>
<path d="M0 0 C2 1 2 1 2 1 Z " fill="#000000" transform="translate(420,397)"/>
<path d="M0 0 C2 1 2 1 2 1 Z " fill="#000000" transform="translate(380,397)"/>
<path d="M0 0 C2 1 2 1 2 1 Z " fill="#000000" transform="translate(130,397)"/>
<path d="M0 0 C2 1 2 1 2 1 Z " fill="#000000" transform="translate(125,394)"/>
<path d="M0 0 C2 1 2 1 2 1 Z " fill="#000000" transform="translate(427,393)"/>
<path d="M0 0 C2 1 2 1 2 1 Z " fill="#000000" transform="translate(387,393)"/>
<path d="M0 0 C2 1 2 1 2 1 Z " fill="#000000" transform="translate(78,390)"/>
<path d="M0 0 C2 1 2 1 2 1 Z " fill="#000000" transform="translate(434,389)"/>
<path d="M0 0 C2 1 2 1 2 1 Z " fill="#000000" transform="translate(439,386)"/>
<path d="M0 0 C2 1 2 1 2 1 Z " fill="#000000" transform="translate(446,382)"/>
<path d="M0 0 C2 1 2 1 2 1 Z " fill="#000000" transform="translate(453,378)"/>
<path d="M0 0 C2 1 2 1 2 1 Z " fill="#000000" transform="translate(413,378)"/>
<path d="M0 0 C2 1 2 1 2 1 Z " fill="#000000" transform="translate(92,375)"/>
<path d="M0 0 C2 1 2 1 2 1 Z " fill="#000000" transform="translate(87,372)"/>
<path d="M0 0 C2 1 2 1 2 1 Z " fill="#000000" transform="translate(85,371)"/>
<path d="M0 0 C2 1 2 1 2 1 Z " fill="#000000" transform="translate(80,368)"/>
<path d="M0 0 C2 1 2 1 2 1 Z " fill="#000000" transform="translate(432,367)"/>
<path d="M0 0 C2 1 2 1 2 1 Z " fill="#000000" transform="translate(78,367)"/>
<path d="M0 0 C2 1 2 1 2 1 Z " fill="#000000" transform="translate(73,364)"/>
<path d="M0 0 C2 1 2 1 2 1 Z " fill="#000000" transform="translate(266,260)"/>
<path d="M0 0 C2 1 2 1 2 1 Z " fill="#000000" transform="translate(271,257)"/>
<path d="M0 0 C2 1 2 1 2 1 Z " fill="#000000" transform="translate(273,256)"/>
<path d="M0 0 C2 1 2 1 2 1 Z " fill="#000000" transform="translate(237,255)"/>
<path d="M0 0 C2 1 2 1 2 1 Z " fill="#000000" transform="translate(278,253)"/>
<path d="M0 0 C2 1 2 1 2 1 Z " fill="#000000" transform="translate(280,252)"/>
<path d="M0 0 C2 1 2 1 2 1 Z " fill="#000000" transform="translate(285,249)"/>
<path d="M0 0 C2 1 2 1 2 1 Z " fill="#000000" transform="translate(225,248)"/>
<path d="M0 0 C2 1 2 1 2 1 Z " fill="#000000" transform="translate(290,246)"/>
<path d="M0 0 C2 1 2 1 2 1 Z " fill="#000000" transform="translate(218,244)"/>
<path d="M0 0 C2 1 2 1 2 1 Z " fill="#000000" transform="translate(253,241)"/>
<path d="M0 0 C2 1 2 1 2 1 Z " fill="#000000" transform="translate(251,240)"/>
<path d="M0 0 C2 1 2 1 2 1 Z " fill="#000000" transform="translate(264,238)"/>
<path d="M0 0 C2 1 2 1 2 1 Z " fill="#000000" transform="translate(246,237)"/>
<path d="M0 0 C2 1 2 1 2 1 Z " fill="#000000" transform="translate(239,233)"/>
<path d="M0 0 C2 1 2 1 2 1 Z " fill="#000000" transform="translate(316,231)"/>
<path d="M0 0 C2 1 2 1 2 1 Z " fill="#000000" transform="translate(232,229)"/>
<path d="M0 0 C2 1 2 1 2 1 Z " fill="#000000" transform="translate(323,227)"/>
<path d="M0 0 C2 1 2 1 2 1 Z " fill="#000000" transform="translate(283,227)"/>
<path d="M0 0 C2 1 2 1 2 1 Z " fill="#000000" transform="translate(227,226)"/>
<path d="M0 0 C2 1 2 1 2 1 Z " fill="#000000" transform="translate(187,226)"/>
<path d="M0 0 C2 1 2 1 2 1 Z " fill="#000000" transform="translate(328,224)"/>
<path d="M0 0 C2 1 2 1 2 1 Z " fill="#000000" transform="translate(330,223)"/>
<path d="M0 0 C2 1 2 1 2 1 Z " fill="#000000" transform="translate(290,223)"/>
<path d="M0 0 C2 1 2 1 2 1 Z " fill="#000000" transform="translate(220,222)"/>
<path d="M0 0 C2 1 2 1 2 1 Z " fill="#000000" transform="translate(335,220)"/>
<path d="M0 0 C2 1 2 1 2 1 Z " fill="#000000" transform="translate(213,218)"/>
<path d="M0 0 C2 1 2 1 2 1 Z " fill="#000000" transform="translate(302,216)"/>
<path d="M0 0 C2 1 2 1 2 1 Z " fill="#000000" transform="translate(208,215)"/>
<path d="M0 0 C2 1 2 1 2 1 Z " fill="#000000" transform="translate(201,211)"/>
<path d="M0 0 C2 1 2 1 2 1 Z " fill="#000000" transform="translate(194,207)"/>
<path d="M0 0 C2 1 2 1 2 1 Z " fill="#000000" transform="translate(321,205)"/>
<path d="M0 0 C2 1 2 1 2 1 Z " fill="#000000" transform="translate(189,204)"/>
<path d="M0 0 C2 1 2 1 2 1 Z " fill="#000000" transform="translate(368,201)"/>
<path d="M0 0 C2 1 2 1 2 1 Z " fill="#000000" transform="translate(328,201)"/>
<path d="M0 0 C2 1 2 1 2 1 Z " fill="#000000" transform="translate(182,200)"/>
<path d="M0 0 C2 1 2 1 2 1 Z " fill="#000000" transform="translate(142,200)"/>
<path d="M0 0 C2 1 2 1 2 1 Z " fill="#000000" transform="translate(373,198)"/>
<path d="M0 0 C2 1 2 1 2 1 Z " fill="#000000" transform="translate(375,197)"/>
<path d="M0 0 C2 1 2 1 2 1 Z " fill="#000000" transform="translate(177,197)"/>
<path d="M0 0 C2 1 2 1 2 1 Z " fill="#000000" transform="translate(175,196)"/>
<path d="M0 0 C2 1 2 1 2 1 Z " fill="#000000" transform="translate(380,194)"/>
<path d="M0 0 C2 1 2 1 2 1 Z " fill="#000000" transform="translate(340,194)"/>
<path d="M0 0 C2 1 2 1 2 1 Z " fill="#000000" transform="translate(170,193)"/>
<path d="M0 0 C2 1 2 1 2 1 Z " fill="#000000" transform="translate(168,192)"/>
<path d="M0 0 C2 1 2 1 2 1 Z " fill="#000000" transform="translate(387,190)"/>
<path d="M0 0 C2 1 2 1 2 1 Z " fill="#000000" transform="translate(347,190)"/>
<path d="M0 0 C2 1 2 1 2 1 Z " fill="#000000" transform="translate(163,189)"/>
<path d="M0 0 C2 1 2 1 2 1 Z " fill="#000000" transform="translate(123,189)"/>
<path d="M0 0 C2 1 2 1 2 1 Z " fill="#000000" transform="translate(158,186)"/>
<path d="M0 0 C2 1 2 1 2 1 Z " fill="#000000" transform="translate(156,185)"/>
<path d="M0 0 C2 1 2 1 2 1 Z " fill="#000000" transform="translate(151,182)"/>
<path d="M0 0 C2 1 2 1 2 1 Z " fill="#000000" transform="translate(149,181)"/>
<path d="M0 0 C2 1 2 1 2 1 Z " fill="#000000" transform="translate(366,179)"/>
<path d="M0 0 C2 1 2 1 2 1 Z " fill="#000000" transform="translate(144,178)"/>
<path d="M0 0 C2 1 2 1 2 1 Z " fill="#000000" transform="translate(411,176)"/>
<path d="M0 0 C2 1 2 1 2 1 Z " fill="#000000" transform="translate(413,175)"/>
<path d="M0 0 C2 1 2 1 2 1 Z " fill="#000000" transform="translate(137,174)"/>
<path d="M0 0 C2 1 2 1 2 1 Z " fill="#000000" transform="translate(418,172)"/>
<path d="M0 0 C2 1 2 1 2 1 Z " fill="#000000" transform="translate(130,170)"/>
<path d="M0 0 C2 1 2 1 2 1 Z " fill="#000000" transform="translate(425,168)"/>
<path d="M0 0 C2 1 2 1 2 1 Z " fill="#000000" transform="translate(385,168)"/>
<path d="M0 0 C2 1 2 1 2 1 Z " fill="#000000" transform="translate(125,167)"/>
<path d="M0 0 C2 1 2 1 2 1 Z " fill="#000000" transform="translate(85,167)"/>
<path d="M0 0 C2 1 2 1 2 1 Z " fill="#000000" transform="translate(430,165)"/>
<path d="M0 0 C2 1 2 1 2 1 Z " fill="#000000" transform="translate(432,164)"/>
<path d="M0 0 C2 1 2 1 2 1 Z " fill="#000000" transform="translate(118,163)"/>
<path d="M0 0 C2 1 2 1 2 1 Z " fill="#000000" transform="translate(437,161)"/>
<path d="M0 0 C2 1 2 1 2 1 Z " fill="#000000" transform="translate(113,160)"/>
<path d="M0 0 C2 1 2 1 2 1 Z " fill="#000000" transform="translate(111,159)"/>
<path d="M0 0 C2 1 2 1 2 1 Z " fill="#000000" transform="translate(404,157)"/>
<path d="M0 0 C2 1 2 1 2 1 Z " fill="#000000" transform="translate(106,156)"/>
<path d="M0 0 C2 1 2 1 2 1 Z " fill="#000000" transform="translate(99,152)"/>
<path d="M0 0 C2 1 2 1 2 1 Z " fill="#000000" transform="translate(94,149)"/>
<path d="M0 0 C2 1 2 1 2 1 Z " fill="#000000" transform="translate(92,148)"/>
<path d="M0 0 C2 1 2 1 2 1 Z " fill="#000000" transform="translate(423,146)"/>
<path d="M0 0 C2 1 2 1 2 1 Z " fill="#000000" transform="translate(87,145)"/>
<path d="M0 0 C2 1 2 1 2 1 Z " fill="#000000" transform="translate(85,140)"/>
<path d="M0 0 C2 1 2 1 2 1 Z " fill="#000000" transform="translate(87,139)"/>
<path d="M0 0 C2 1 2 1 2 1 Z " fill="#000000" transform="translate(92,136)"/>
<path d="M0 0 C2 1 2 1 2 1 Z " fill="#000000" transform="translate(453,133)"/>
<path d="M0 0 C2 1 2 1 2 1 Z " fill="#000000" transform="translate(413,133)"/>
<path d="M0 0 C2 1 2 1 2 1 Z " fill="#000000" transform="translate(99,132)"/>
<path d="M0 0 C2 1 2 1 2 1 Z " fill="#000000" transform="translate(446,129)"/>
<path d="M0 0 C2 1 2 1 2 1 Z " fill="#000000" transform="translate(406,129)"/>
<path d="M0 0 C2 1 2 1 2 1 Z " fill="#000000" transform="translate(104,129)"/>
<path d="M0 0 C2 1 2 1 2 1 Z " fill="#000000" transform="translate(106,128)"/>
<path d="M0 0 C2 1 2 1 2 1 Z " fill="#000000" transform="translate(439,125)"/>
<path d="M0 0 C2 1 2 1 2 1 Z " fill="#000000" transform="translate(111,125)"/>
<path d="M0 0 C2 1 2 1 2 1 Z " fill="#000000" transform="translate(434,122)"/>
<path d="M0 0 C2 1 2 1 2 1 Z " fill="#000000" transform="translate(118,121)"/>
<path d="M0 0 C2 1 2 1 2 1 Z " fill="#000000" transform="translate(78,121)"/>
<path d="M0 0 C2 1 2 1 2 1 Z " fill="#000000" transform="translate(427,118)"/>
<path d="M0 0 C2 1 2 1 2 1 Z " fill="#000000" transform="translate(387,118)"/>
<path d="M0 0 C2 1 2 1 2 1 Z " fill="#000000" transform="translate(123,118)"/>
<path d="M0 0 C2 1 2 1 2 1 Z " fill="#000000" transform="translate(125,117)"/>
<path d="M0 0 C2 1 2 1 2 1 Z " fill="#000000" transform="translate(420,114)"/>
<path d="M0 0 C2 1 2 1 2 1 Z " fill="#000000" transform="translate(380,114)"/>
<path d="M0 0 C2 1 2 1 2 1 Z " fill="#000000" transform="translate(130,114)"/>
<path d="M0 0 C2 1 2 1 2 1 Z " fill="#000000" transform="translate(132,113)"/>
<path d="M0 0 C2 1 2 1 2 1 Z " fill="#000000" transform="translate(415,111)"/>
<path d="M0 0 C2 1 2 1 2 1 Z " fill="#000000" transform="translate(413,110)"/>
<path d="M0 0 C2 1 2 1 2 1 Z " fill="#000000" transform="translate(137,110)"/>
<path d="M0 0 C2 1 2 1 2 1 Z " fill="#000000" transform="translate(97,110)"/>
<path d="M0 0 C2 1 2 1 2 1 Z " fill="#000000" transform="translate(408,107)"/>
<path d="M0 0 C2 1 2 1 2 1 Z " fill="#000000" transform="translate(144,106)"/>
<path d="M0 0 C2 1 2 1 2 1 Z " fill="#000000" transform="translate(104,106)"/>
<path d="M0 0 C2 1 2 1 2 1 Z " fill="#000000" transform="translate(401,103)"/>
<path d="M0 0 C2 1 2 1 2 1 Z " fill="#000000" transform="translate(361,103)"/>
<path d="M0 0 C2 1 2 1 2 1 Z " fill="#000000" transform="translate(149,103)"/>
<path d="M0 0 C2 1 2 1 2 1 Z " fill="#000000" transform="translate(359,102)"/>
<path d="M0 0 C2 1 2 1 2 1 Z " fill="#000000" transform="translate(151,102)"/>
<path d="M0 0 C2 1 2 1 2 1 Z " fill="#000000" transform="translate(394,99)"/>
<path d="M0 0 C2 1 2 1 2 1 Z " fill="#000000" transform="translate(156,99)"/>
<path d="M0 0 C2 1 2 1 2 1 Z " fill="#000000" transform="translate(158,98)"/>
<path d="M0 0 C2 1 2 1 2 1 Z " fill="#000000" transform="translate(389,96)"/>
<path d="M0 0 C2 1 2 1 2 1 Z " fill="#000000" transform="translate(163,95)"/>
<path d="M0 0 C2 1 2 1 2 1 Z " fill="#000000" transform="translate(123,95)"/>
<path d="M0 0 C2 1 2 1 2 1 Z " fill="#000000" transform="translate(382,92)"/>
<path d="M0 0 C2 1 2 1 2 1 Z " fill="#000000" transform="translate(342,92)"/>
<path d="M0 0 C2 1 2 1 2 1 Z " fill="#000000" transform="translate(170,91)"/>
<path d="M0 0 C2 1 2 1 2 1 Z " fill="#000000" transform="translate(130,91)"/>
<path d="M0 0 C2 1 2 1 2 1 Z " fill="#000000" transform="translate(375,88)"/>
<path d="M0 0 C2 1 2 1 2 1 Z " fill="#000000" transform="translate(335,88)"/>
<path d="M0 0 C2 1 2 1 2 1 Z " fill="#000000" transform="translate(175,88)"/>
<path d="M0 0 C2 1 2 1 2 1 Z " fill="#000000" transform="translate(177,87)"/>
<path d="M0 0 C2 1 2 1 2 1 Z " fill="#000000" transform="translate(370,85)"/>
<path d="M0 0 C2 1 2 1 2 1 Z " fill="#000000" transform="translate(368,84)"/>
<path d="M0 0 C2 1 2 1 2 1 Z " fill="#000000" transform="translate(328,84)"/>
<path d="M0 0 C2 1 2 1 2 1 Z " fill="#000000" transform="translate(182,84)"/>
<path d="M0 0 C2 1 2 1 2 1 Z " fill="#000000" transform="translate(142,84)"/>
<path d="M0 0 C2 1 2 1 2 1 Z " fill="#000000" transform="translate(184,83)"/>
<path d="M0 0 C2 1 2 1 2 1 Z " fill="#000000" transform="translate(363,81)"/>
<path d="M0 0 C2 1 2 1 2 1 Z " fill="#000000" transform="translate(189,80)"/>
<path d="M0 0 C2 1 2 1 2 1 Z " fill="#000000" transform="translate(149,80)"/>
<path d="M0 0 C2 1 2 1 2 1 Z " fill="#000000" transform="translate(356,77)"/>
<path d="M0 0 C2 1 2 1 2 1 Z " fill="#000000" transform="translate(316,77)"/>
<path d="M0 0 C2 1 2 1 2 1 Z " fill="#000000" transform="translate(196,76)"/>
<path d="M0 0 C2 1 2 1 2 1 Z " fill="#000000" transform="translate(349,73)"/>
<path d="M0 0 C2 1 2 1 2 1 Z " fill="#000000" transform="translate(309,73)"/>
<path d="M0 0 C2 1 2 1 2 1 Z " fill="#000000" transform="translate(201,73)"/>
<path d="M0 0 C2 1 2 1 2 1 Z " fill="#000000" transform="translate(203,72)"/>
<path d="M0 0 C2 1 2 1 2 1 Z " fill="#000000" transform="translate(344,70)"/>
<path d="M0 0 C2 1 2 1 2 1 Z " fill="#000000" transform="translate(342,69)"/>
<path d="M0 0 C2 1 2 1 2 1 Z " fill="#000000" transform="translate(208,69)"/>
<path d="M0 0 C2 1 2 1 2 1 Z " fill="#000000" transform="translate(168,69)"/>
<path d="M0 0 C2 1 2 1 2 1 Z " fill="#000000" transform="translate(337,66)"/>
<path d="M0 0 C2 1 2 1 2 1 Z " fill="#000000" transform="translate(215,65)"/>
<path d="M0 0 C2 1 2 1 2 1 Z " fill="#000000" transform="translate(175,65)"/>
<path d="M0 0 C2 1 2 1 2 1 Z " fill="#000000" transform="translate(330,62)"/>
<path d="M0 0 C2 1 2 1 2 1 Z " fill="#000000" transform="translate(290,62)"/>
<path d="M0 0 C2 1 2 1 2 1 Z " fill="#000000" transform="translate(222,61)"/>
<path d="M0 0 C2 1 2 1 2 1 Z " fill="#000000" transform="translate(323,58)"/>
<path d="M0 0 C2 1 2 1 2 1 Z " fill="#000000" transform="translate(283,58)"/>
<path d="M0 0 C2 1 2 1 2 1 Z " fill="#000000" transform="translate(227,58)"/>
<path d="M0 0 C2 1 2 1 2 1 Z " fill="#000000" transform="translate(318,55)"/>
<path d="M0 0 C2 1 2 1 2 1 Z " fill="#000000" transform="translate(316,54)"/>
<path d="M0 0 C2 1 2 1 2 1 Z " fill="#000000" transform="translate(234,54)"/>
<path d="M0 0 C2 1 2 1 2 1 Z " fill="#000000" transform="translate(194,54)"/>
<path d="M0 0 C2 1 2 1 2 1 Z " fill="#000000" transform="translate(311,51)"/>
<path d="M0 0 C2 1 2 1 2 1 Z " fill="#000000" transform="translate(241,50)"/>
<path d="M0 0 C2 1 2 1 2 1 Z " fill="#000000" transform="translate(201,50)"/>
<path d="M0 0 C2 1 2 1 2 1 Z " fill="#000000" transform="translate(304,47)"/>
<path d="M0 0 C2 1 2 1 2 1 Z " fill="#000000" transform="translate(264,47)"/>
<path d="M0 0 C2 1 2 1 2 1 Z " fill="#000000" transform="translate(246,47)"/>
<path d="M0 0 C2 1 2 1 2 1 Z " fill="#000000" transform="translate(262,46)"/>
<path d="M0 0 C2 1 2 1 2 1 Z " fill="#000000" transform="translate(248,46)"/>
<path d="M0 0 C2 1 2 1 2 1 Z " fill="#000000" transform="translate(297,43)"/>
<path d="M0 0 C2 1 2 1 2 1 Z " fill="#000000" transform="translate(253,43)"/>
<path d="M0 0 C2 1 2 1 2 1 Z " fill="#000000" transform="translate(292,40)"/>
<path d="M0 0 C2 1 2 1 2 1 Z " fill="#000000" transform="translate(290,39)"/>
<path d="M0 0 C2 1 2 1 2 1 Z " fill="#000000" transform="translate(220,39)"/>
<path d="M0 0 C2 1 2 1 2 1 Z " fill="#000000" transform="translate(285,36)"/>
<path d="M0 0 C2 1 2 1 2 1 Z " fill="#000000" transform="translate(278,32)"/>
<path d="M0 0 C2 1 2 1 2 1 Z " fill="#000000" transform="translate(273,29)"/>
<path d="M0 0 C2 1 2 1 2 1 Z " fill="#000000" transform="translate(271,28)"/>
<path d="M0 0 C2 1 2 1 2 1 Z " fill="#000000" transform="translate(239,28)"/>
<path d="M0 0 C2 1 2 1 2 1 Z " fill="#000000" transform="translate(266,25)"/>
<path d="M0 0 C2 1 2 1 2 1 Z " fill="#000000" transform="translate(246,24)"/>
<path d="M0 0 C2 1 2 1 2 1 Z " fill="#000000" transform="translate(259,21)"/>
<path d="M0 0 C2 1 2 1 2 1 Z " fill="#000000" transform="translate(253,20)"/>
<path d="" fill="#000000" transform="translate(0,0)"/>
<path d="" fill="#000000" transform="translate(0,0)"/>
<path d="" fill="#000000" transform="translate(0,0)"/>
<path d="" fill="#000000" transform="translate(0,0)"/>
<path d="" fill="#000000" transform="translate(0,0)"/>
<path d="" fill="#000000" transform="translate(0,0)"/>
<path d="" fill="#000000" transform="translate(0,0)"/>
<path d="" fill="#000000" transform="translate(0,0)"/>
<path d="" fill="#000000" transform="translate(0,0)"/>
<path d="" fill="#000000" transform="translate(0,0)"/>
<path d="" fill="#000000" transform="translate(0,0)"/>
<path d="" fill="#000000" transform="translate(0,0)"/>
<path d="" fill="#000000" transform="translate(0,0)"/>
</svg>
