<svg version="1.1" viewBox="0.0 0.0 960.0 720.0" fill="none" stroke="none" stroke-linecap="square" stroke-miterlimit="10" xmlns:xlink="http://www.w3.org/1999/xlink" xmlns="http://www.w3.org/2000/svg"><clipPath id="p.0"><path d="m0 0l960.0 0l0 720.0l-960.0 0l0 -720.0z" clip-rule="nonzero"/></clipPath><g clip-path="url(#p.0)"><path fill="#000000" fill-opacity="0.0" d="m0 0l960.0 0l0 720.0l-960.0 0z" fill-rule="evenodd"/><path fill="#000000" fill-opacity="0.0" d="m202.37007 202.99081l284.063 -164.0" fill-rule="evenodd"/><path stroke="#000000" stroke-width="24.0" stroke-linejoin="round" stroke-linecap="butt" d="m202.37007 202.99081l284.063 -164.0" fill-rule="evenodd"/><path fill="#000000" fill-opacity="0.0" d="m215.31233 207.54462l264.44098 154.4252" fill-rule="evenodd"/><path stroke="#000000" stroke-width="24.0" stroke-linejoin="round" stroke-linecap="butt" d="m215.31233 207.54462l264.44098 154.4252" fill-rule="evenodd"/><path fill="#000000" fill-opacity="0.0" d="m761.5092 193.62073l-277.8268 170.3937" fill-rule="evenodd"/><path stroke="#000000" stroke-width="24.0" stroke-linejoin="round" stroke-linecap="butt" d="m761.5092 193.62073l-277.8268 170.3937" fill-rule="evenodd"/><path fill="#000000" fill-opacity="0.0" d="m761.69556 194.29002l-287.2441 -155.27559" fill-rule="evenodd"/><path stroke="#000000" stroke-width="24.0" stroke-linejoin="round" stroke-linecap="butt" d="m761.69556 194.29002l-287.2441 -155.27559" fill-rule="evenodd"/><path fill="#000000" fill-opacity="0.0" d="m481.69553 357.13516l0 323.87405" fill-rule="evenodd"/><path stroke="#000000" stroke-width="24.0" stroke-linejoin="round" stroke-linecap="butt" d="m481.69553 357.13516l0 323.87405" fill-rule="evenodd"/><path fill="#000000" fill-opacity="0.0" d="m548.1916 320.89896l0 318.4882" fill-rule="evenodd"/><path stroke="#000000" stroke-width="24.0" stroke-linejoin="round" stroke-linecap="butt" d="m548.1916 320.89896l0 318.4882" fill-rule="evenodd"/><path fill="#000000" fill-opacity="0.0" d="m618.9265 275.9567l0 323.62204" fill-rule="evenodd"/><path stroke="#000000" stroke-width="24.0" stroke-linejoin="round" stroke-linecap="butt" d="m618.9265 275.9567l0 323.62204" fill-rule="evenodd"/><path fill="#000000" fill-opacity="0.0" d="m684.55383 236.23753l0 329.66925" fill-rule="evenodd"/><path stroke="#000000" stroke-width="24.0" stroke-linejoin="round" stroke-linecap="butt" d="m684.55383 236.23753l0 329.66925" fill-rule="evenodd"/><path fill="#000000" fill-opacity="0.0" d="m755.4147 183.68373l0 340.59845" fill-rule="evenodd"/><path stroke="#000000" stroke-width="24.0" stroke-linejoin="round" stroke-linecap="butt" d="m755.4147 183.68373l0 340.59845" fill-rule="evenodd"/><path fill="#000000" fill-opacity="0.0" d="m412.64172 320.89896l0 320.94485" fill-rule="evenodd"/><path stroke="#000000" stroke-width="24.0" stroke-linejoin="round" stroke-linecap="butt" d="m412.64172 320.89896l0 320.94485" fill-rule="evenodd"/><path fill="#000000" fill-opacity="0.0" d="m345.86877 280.3189l0 320.9449" fill-rule="evenodd"/><path stroke="#000000" stroke-width="24.0" stroke-linejoin="round" stroke-linecap="butt" d="m345.86877 280.3189l0 320.9449" fill-rule="evenodd"/><path fill="#000000" fill-opacity="0.0" d="m274.74146 240.59973l0 320.9449" fill-rule="evenodd"/><path stroke="#000000" stroke-width="24.0" stroke-linejoin="round" stroke-linecap="butt" d="m274.74146 240.59973l0 320.9449" fill-rule="evenodd"/><path fill="#000000" fill-opacity="0.0" d="m208.39896 192.55774l-0.1889801 335.55908" fill-rule="evenodd"/><path stroke="#000000" stroke-width="24.0" stroke-linejoin="round" stroke-linecap="butt" d="m208.39896 192.55774l-0.1889801 335.55908" fill-rule="evenodd"/><path fill="#000000" fill-opacity="0.0" d="m202.08398 517.83856l285.19687 161.88977" fill-rule="evenodd"/><path stroke="#000000" stroke-width="24.0" stroke-linejoin="round" stroke-linecap="butt" d="m202.08398 517.83856l285.19687 161.88977" fill-rule="evenodd"/><path fill="#000000" fill-opacity="0.0" d="m761.3517 513.80707l-285.76376 166.14172" fill-rule="evenodd"/><path stroke="#000000" stroke-width="24.0" stroke-linejoin="round" stroke-linecap="butt" d="m761.3517 513.80707l-285.76376 166.14172" fill-rule="evenodd"/></g></svg>